<svg viewBox="-61 0 512 512" xmlns="http://www.w3.org/2000/svg"><path d="m195 0c-107.402344 0-195 87.597656-195 195 0 42.597656 13.5 83.097656 39 117l140.097656 188.601562h31.804688l140.097656-188.601562c25.5-33.902344 39-74.398438 39-117 0-107.402344-87.597656-195-195-195zm0 0" fill="#ff5b5b"/><path d="m390 195c0 42.597656-13.5 83.097656-39 117l-140.097656 188.601562h-15.902344v-500.601562c107.402344 0 195 87.597656 195 195zm0 0" fill="#ff001e"/><path d="m300 497c0 8.398438-6.597656 15-15 15h-180c-8.402344 0-15-6.601562-15-15 0-8.402344 6.597656-15 15-15h180c8.402344 0 15 6.597656 15 15zm0 0" fill="#a8d32a"/><path d="m300 497c0 8.398438-6.597656 15-15 15h-90v-30h90c8.402344 0 15 6.597656 15 15zm0 0" fill="#93bf00"/><path d="m195 60c-74.398438 0-135 60.597656-135 135 0 74.398438 60.601562 135 135 135 74.097656 0 135-60.300781 135-135 0-74.402344-60.601562-135-135-135zm-15 238.5c-17.699219-2.699219-33.898438-9.300781-47.699219-19.800781l47.699219-47.398438zm0-109.800781-68.699219 69c-13.199219-17.699219-21.300781-39.300781-21.300781-62.699219 0-52.800781 39.300781-96 90-103.5zm30 109.800781v-67.203125l47.699219 47.402344c-13.800781 10.5-30 17.101562-47.699219 19.800781zm68.699219-40.800781-68.699219-69v-97.199219c50.699219 7.5 90 50.699219 90 103.5 0 23.398438-8.101562 45-21.300781 62.699219zm0 0" fill="#ececf1"/><path d="m195 60v270c74.097656 0 135-60.300781 135-135 0-74.402344-60.601562-135-135-135zm15 238.5v-67.203125l47.699219 47.402344c-13.800781 10.5-30 17.101562-47.699219 19.800781zm68.699219-40.800781-68.699219-69v-97.199219c50.699219 7.5 90 50.699219 90 103.5 0 23.398438-8.101562 45-21.300781 62.699219zm0 0" fill="#e2e2e7"/></svg>