<svg viewBox="-61 0 512 512" xmlns="http://www.w3.org/2000/svg"><path d="M195 0C87.598 0 0 87.598 0 195c0 42.598 13.5 83.098 39 117l140.098 188.602h31.804L351 312c25.5-33.902 39-74.398 39-117C390 87.598 302.402 0 195 0zm0 0" fill="#ff5b5b"/><path d="M390 195c0 42.598-13.5 83.098-39 117L210.902 500.602H195V0c107.402 0 195 87.598 195 195zm0 0" fill="#ff001e"/><path d="M300 497c0 8.398-6.598 15-15 15H105c-8.402 0-15-6.602-15-15 0-8.402 6.598-15 15-15h180c8.402 0 15 6.598 15 15zm0 0" fill="#a8d32a"/><path d="M300 497c0 8.398-6.598 15-15 15h-90v-30h90c8.402 0 15 6.598 15 15zm0 0" fill="#93bf00"/><path d="M195 60c-74.398 0-135 60.598-135 135 0 74.398 60.602 135 135 135 74.098 0 135-60.3 135-135 0-74.402-60.602-135-135-135zm-15 238.5c-17.7-2.7-33.898-9.3-47.7-19.8l47.7-47.4zm0-109.8l-68.7 69C98.103 240 90 218.397 90 195c0-52.8 39.3-96 90-103.5zm30 109.8v-67.203l47.7 47.402c-13.802 10.5-30 17.102-47.7 19.801zm68.7-40.8l-68.7-69V91.5c50.7 7.5 90 50.7 90 103.5 0 23.398-8.102 45-21.3 62.7zm0 0" fill="#ececf1"/><path d="M195 60v270c74.098 0 135-60.3 135-135 0-74.402-60.602-135-135-135zm15 238.5v-67.203l47.7 47.402c-13.802 10.5-30 17.102-47.7 19.801zm68.7-40.8l-68.7-69V91.5c50.7 7.5 90 50.7 90 103.5 0 23.398-8.102 45-21.3 62.7zm0 0" fill="#e2e2e7"/></svg>